<svg class="svg-icon" style="width: 1em; height: 1em;vertical-align: middle;fill: currentColor;overflow: hidden;" viewBox="0 0 1024 1024" version="1.1" xmlns="http://www.w3.org/2000/svg"><path d="M827.871087 196.128913c-174.451194-174.451194-457.292004-174.450171-631.742175 0s-174.450171 457.292004 0 631.742175 457.292004 174.450171 631.742175 0S1002.321258 370.580107 827.871087 196.128913zM552.931225 760.66443c0 22.605857-18.325367 40.932248-40.932248 40.932248-11.30344 0-21.536502-4.581342-28.943193-11.988032-7.407714-7.407714-11.989055-17.640776-11.988032-28.943193l0-207.731158-207.731158 0c-11.30344 0-21.536502-4.581342-28.943193-11.988032-7.407714-7.407714-11.989055-17.640776-11.988032-28.943193 0-22.605857 18.325367-40.932248 40.932248-40.932248l207.731158 0 0-207.731158c0-22.605857 18.326391-40.932248 40.932248-40.932248 22.605857 0.001023 40.932248 18.325367 40.932248 40.932248l-0.001023 207.731158 207.731158 0c22.605857 0 40.932248 18.325367 40.932248 40.932248 0 22.605857-18.325367 40.932248-40.932248 40.932248l-207.731158 0.001023L552.932248 760.66443z"  /></svg>